<?xml version="1.0" encoding="UTF-8" standalone="no"?>
<svg
   xmlns:dc="http://purl.org/dc/elements/1.1/"
   xmlns:cc="http://creativecommons.org/ns#"
   xmlns:rdf="http://www.w3.org/1999/02/22-rdf-syntax-ns#"
   xmlns:svg="http://www.w3.org/2000/svg"
   xmlns="http://www.w3.org/2000/svg"
   xmlns:sodipodi="http://sodipodi.sourceforge.net/DTD/sodipodi-0.dtd"
   xmlns:inkscape="http://www.inkscape.org/namespaces/inkscape"
   xml:space="preserve"
   height="214.06"
   viewBox="0 0 126.25229 214.05736"
   width="126.25"
   version="1.1"
   id="svg16"
   sodipodi:docname="brown-coa-white.svg"
   inkscape:version="0.92.3 (2405546, 2018-03-11)"><metadata
     id="metadata22"><rdf:RDF><cc:Work
         rdf:about=""><dc:format>image/svg+xml</dc:format><dc:type
           rdf:resource="http://purl.org/dc/dcmitype/StillImage" /><dc:title></dc:title></cc:Work></rdf:RDF></metadata><defs
     id="defs20" /><sodipodi:namedview
     pagecolor="#ffffff"
     bordercolor="#666666"
     borderopacity="1"
     objecttolerance="10"
     gridtolerance="10"
     guidetolerance="10"
     inkscape:pageopacity="0"
     inkscape:pageshadow="2"
     inkscape:window-width="1600"
     inkscape:window-height="834"
     id="namedview18"
     showgrid="false"
     inkscape:pagecheckerboard="true"
     inkscape:zoom="1.9395237"
     inkscape:cx="111.56517"
     inkscape:cy="73.923262"
     inkscape:window-x="0"
     inkscape:window-y="32"
     inkscape:window-maximized="1"
     inkscape:current-layer="svg16" /><path
     d="m 61.807417,1.0017321 c -0.38423,0.0269 -0.70586,0.80586 -0.7793,1.2012 -0.14,0.85625 -0.33484,2.0327 -0.55859,3.3965 -3.376198,-1.8025 -7.125998,-2.3016 -10.634998,-1.2266 -3.8538,1.1788 -6.7919,4.051 -8.4844,8.0409999 -1.4,-0.49875 -2.6669,-0.79976 -3.8594,-1.0098 -0.70625,-0.92625 -1.7536,-2.1020999 -3.2148,-3.3808999 -0.985,-0.8725 -1.7983,-0.41977 -1.207,1.3027 0.23125,0.66625 0.43219,1.2576999 0.61719,1.8163999 -2.7488,0.15125 -4.7562,1.0552 -6.1074,2.0977 -2.67,2.0625 -3.7571,5.0169 -3.9746,6.8906 -0.1575,0.03875 -0.36523,0.08984 -0.36523,0.08984 -2.24,0.51375 -5.2652,1.3562 -7.1602,4.3438 -0.33375,-0.2075 -0.57844,-0.35953 -0.67969,-0.42578 -5.6475006,-3.75 -3.0424,1.0749 -0.85742,3.2012 -7.5100006,1.0625 -9.6301006,4.6688 -10.1740006,6.8125 -0.1375,0.54375 -0.20508,1.1039 -0.20508,1.6602 0,2.435 1.2713,4.877401 3.4062,6.3262 2.5099996,1.6988 5.5549006,1.5938 8.2637006,-0.13867 3.535,1.1388 8.5295,0.95586 12.113,-1.650399 2.0662,2.227499 3.7356,3.808299 4.6406,4.706999 2.2512,2.24 5.5522,3.9459 7.2422,4.5859 -1.67,-0.6475 -4.4492,-1.3413 -7.2305,-0.95508 -6.0025,0.83625 -9.9866,-0.25281 -12.557,-0.50781 -4.2362,-0.42 -8.5903,0.31055 -10.7580006,0.31055 -2.2975,0 -5.5398,1.08 -7.1211,1.3125 -1.70869996,0.255 -1.59749996,1.3844 0.78125,2.0156 2.3538,0.6375 6.7647,1.0298 7.9609006,1.541 3.8325,1.665 10.244,3.0559 14.764,2.6934 3.2075,-0.245 6.4388,1.3175 7.2676,1.5625 1.5912,0.48875 5.5323,1.5659 7.1523,1.5371 0,-0.0975 4.7e-4,2.2779 0.16797,3.4004 -0.61375,0.2025 -1.2023,0.4157 -1.7285,0.6582 -1.795,-1.0912 -9.6726,-4.2868 -19.268,-0.31055 -2.029,-0.699 -6.32,-3.065 -12.1980006,-1.13 -7.25919996,2.396 -6.08099999,9.041 -3.686,12.088 3.2375,4.1188 9.2270006,3.2854 10.9710006,1.2129 3.8988,2.5888 7.8755,1.7131 10.762,-0.07813 1.8962,1.115 11.231,2.9656 18.326,0.07813 0.97,0.72125 4.8652,2.7531 9.8652,0.23438 2.8862,1.7138 7.661298,1.8475 10.110998,-0.3125 0.88875,0.75625 3.5523,1.8358 9.2285,1.7695 6.8162,-0.08125 8.3985,-1.0965 9.3535,-1.9277 1.4688,0.68125 5.2943,2.6809 10.029,0.66211 2.5525,1.6062 7.665,1.5123 10.406003,-0.28516 5.01,2.2775 14.199,1.2459 16.498,-0.33789 4.1125,-2.8525 2.1244,-8.6658 -2.4043,-11.426 -8.9038,-4.4862 -17.193003,-1.0057 -19.393003,0.12305 -2.6225,-1.77 -8.1104,-2.9032 -13.807,-1.8457 0.0875,-0.67875 -0.0117,-1.4546 -0.0117,-2.3184 0,-0.09125 -0.0131,-0.17703 -0.0156,-0.26953 1.13,-0.3425 2.7352,-1.5587 6.0039,-1.7637 4.4462,-0.3 14.939003,-0.16016 20.184003,-2.8477 2.9925,-1.5312 13.406,-3.5728 14.795,-4.3828 1.4338,-0.82 1.0567,-1.4291 0.32422,-1.9316 -0.71,-0.52125 -8.2403,-1.4473 -9.4141,-1.4473 -1.145,0 -7.645,0.0582 -10.156,0.43945 -3.9025,0.58 -10.562003,0.58 -15.619003,0 -1.83,-0.215 -3.8562,0.23258 -5.5137,0.76758 0.32625,-0.27375 0.6757,-0.59289 1.0957,-1.0254 1.4912,-1.535 3.1646,-4.4498 6.1309,-5.902299 0.75,-0.37125 1.4489,-0.74961 2.1289,-1.1309 2.49,1.245 6.4162,2.091199 11.295003,-0.20508 7.2788,3.634999 11.618,1.1746 13.154,-0.11914 1.8775,-1.582501 2.9258,-3.917701 2.9258,-6.271501 0,-0.82 -0.12883,-1.643 -0.39258,-2.4355 -1.0475,-3.1638 -3.9315,-5.1378 -7.8965,-5.6016 -0.22625,-0.84375 -0.58703,-1.6259 -1.0195,-2.3672 0.46125,-0.58625 0.8986,-1.1377 1.1836,-1.4727 0.345,-0.43375 1.5391,-2.4187 -1.6621,-0.76367 -0.165,0.085 -0.47078,0.25211 -0.86328,0.47461 -0.44875,-0.44375 -0.94157,-0.85031 -1.5078,-1.1953 -2.985,-1.82 -7.0195,-2.0416 -11.176003,-0.93164 -0.58375,-2.215 -1.6788,-4.0868 -3.4238,-5.1543 -1.83,-1.12 -4.1346,-1.4423 -6.8496,-1.0273 0.16875,-0.3975 0.32312,-0.74984 0.45312,-1.0273 1.2075,-2.5287999 0.55586,-3.1622999 -0.71289,-2.0409999 -1.4325,1.2686999 -2.334,2.1735999 -3.0215,2.9022999 -2.57,-4.1224999 -5.9544,-6.9060999 -9.9531,-7.9647999 -3.4688,-0.92 -7.215,-0.43383 -10.594,1.2012 -0.20125,-1.7 -0.42492,-3.0966 -0.66992,-3.9004 -0.229,-0.76888 -0.481,-1.02310001 -0.711,-1.007 z m -8.345698,5.3594 c 2.747,-0.12369 5.554098,0.77578 8.001998,2.6133 0.405,0.3025 0.95445,0.32133 1.377,0.04883 3.2425,-2.0825 7.0862,-2.7495 10.545,-1.832 3.8613,1.0225 7.1348,3.9243999 9.4648,8.3905999 0.27375,0.52625 0.89524,0.77258 1.459,0.58008 3.6238,-1.2475 6.5702,-1.2784 8.5215,-0.08594 1.85,1.1325 2.4906,3.1338 2.7031,4.6113 0.05,0.35375 0.25289,0.66476 0.55664,0.85352 0.3025,0.18875 0.67617,0.23039 1.0137,0.11914 3.845003,-1.285 7.707003,-1.098 10.332003,0.50195 1.7225,1.05 2.7898,2.6141 3.0898,4.5254 0.085,0.5575 0.54828,0.97992 1.1133,1.0137 3.3562,0.205 5.7375,1.6948 6.5312,4.0898 0.71125,2.15 -0.014,4.6058 -1.8027,6.1133 -2.5388,2.138801 -6.5591,1.999501 -11.025,-0.38672 -0.34875,-0.18625 -0.76328,-0.18781 -1.1133,-0.0078 -3.48,1.7925 -6.773803,1.912401 -9.798803,0.35742 -3.54,-1.8262 -5.5848,-5.4023 -5.8535,-7.2461 -0.045,-0.32125 -0.21781,-0.60883 -0.47656,-0.79883 -0.26125,-0.19 -0.58555,-0.26805 -0.9043,-0.2168 -2.4788,0.4 -10.706,1.0993 -12.41,-6.7832 -0.0825,-0.38875 -0.35391,-0.71258 -0.72266,-0.86133 -0.36625,-0.15 -0.78914,0.13547 -1.1191,0.35547 -5.3362,3.5488 -10.598,3.2947 -15.647998,-0.75781 -0.47875,-0.38875 -1.1781,-0.44141 -1.6094,-0.0039 -5.7488,5.8362 -10.47,5.4032 -12.773,4.4707 -0.5375,-0.21875 -1.1555,-0.04523 -1.4668,0.44726 -2.23,3.53 -7.012,4.263 -10.346,3.1855 -0.39625,-0.1275 -0.83023,-0.16203 -1.1465,0.10547 -0.32,0.2675 -0.47336,0.68125 -0.41211,1.0938 0.48125,3.265 -0.35453,5.7895 -2.4883,7.502 -2.9438,2.358801 -7.8005,2.586401 -10.793,1.441401 -0.37875,-0.14625 -0.80797,-0.08836 -1.1367,0.15039 -1.9988,1.451199 -4.1804,1.579599 -5.9941006,0.34961 -1.8012,-1.217501 -2.7118,-3.441101 -2.2168,-5.402301 0.705,-2.785 4.0346006,-4.6729 9.1309006,-5.1816 0.52875,-0.0525 0.96125,-0.44609 1.0625,-0.96484 0.91375,-4.665 3.9477,-5.3605 6.8789,-6.0293 l 1.2656,-0.30273 c 0.59625,-0.145 0.96281,-0.70891 0.88281,-1.3164 -0.11125,-0.87875 0.65266,-3.8922 3.1289,-5.8047 2.8825,-2.2275 7.2022,-2.282 12.492,-0.1582 0.30625,0.1225 0.64797,0.11531 0.94922,-0.02344 0.29875,-0.13375 0.52797,-0.38797 0.63672,-0.69922 1.3262,-3.8388 3.9577,-6.5340999 7.4102,-7.5878999 0.88656,-0.27156 1.7953,-0.42752 2.7109,-0.46875 z m 1.0684,2.3086 c -3.738,-0.0826 -7.057,2.6139999 -8.298,4.5819999 -0.43125,0.69125 0.61609,2.6562 1.6211,1.4688 2.095,-2.5 6.0473,-5.2752999 11.071998,-1.8203 0.68875,0.4625 1.4241,-1.5302 0.80664,-2.0664 -1.7172,-1.5155999 -3.502098,-2.1264999 -5.201198,-2.1640999 z m 15.802998,0.91211 c -3.4775,0.01344 -6.5416,1.5581999 -7.5254,3.1581999 -0.5725,0.94125 0.60758,2.7444 1.0488,2.0781 2.1788,-3.2862 10.281,-5.1533999 14.76,1.9316 0.27625,0.445 0.52781,1.1249 0.94531,0.82617 0.59125,-0.40625 1.338,-0.97984 0.7793,-1.9648 -2.6388,-4.525 -6.5303,-6.0426999 -10.008,-6.0292999 z M 36.513119,15.698742 c -5.639,-0.292 -8.21,3.803 -8.764,6.729 -0.25875,1.3862 1.5695,1.5538 1.6895,1.1113 0.88375,-3.2638 3.6185,-7.4005 9.0723,-5.2617 0.985,0.39125 1.5256,-1.9367 0.60938,-2.168 -0.93375,-0.23703 -1.8019,-0.36837 -2.6074,-0.41016 z m 52.196998,1.5508 c -1.2823,-0.02359 -2.5763,0.26117 -3.5996,0.62305 -0.4325,0.15 -0.75,2.3226 0.5625,1.8926 2.8462,-0.9075 5.2286,-1.0388 6.4961,2.2637 0.3475,0.89375 1.9136,0.28797 1.5586,-0.98828 -0.775,-2.8508 -2.8805,-3.7517 -5.0176,-3.791 z m 12.482003,5.9121 c -1.299203,0.04423 -2.518703,0.37539 -3.437503,0.90039 -1.0838,0.6175 -0.46695,2.3559 0.2168,2.0859 3.052503,-1.1638 6.704303,-1.1738 8.966803,2.9824 0.75125,1.3812 1.9638,-0.16953 1.6426,-1.082 -1.2856,-3.6902 -4.5305,-4.984 -7.3887,-4.8867 z m -44.637001,1.0098 c 0.30125,0.22 0.6057,0.38562 0.9082,0.57812 -0.15375,0.905 -0.29484,1.7227 -0.40234,2.3164 -0.6525,3.5562 -0.69789,6.2891 -0.74414,7.4629 -0.05,1.1112 0.058,2.8666 0.13672,3.9004 l 0.0859,0.17969 c 0,0 -1.7536,-2.6318 -1.9648,-2.9668 -0.6,-0.91625 -1.3809,-1.8437 -2.2559,-2.9199 -1.3712,-1.66 -2.5766,-3.0081 -3.5078,-4.0156 2.2975,-0.56125 4.9204,-1.8714 7.7441,-4.5352 z m -31.891,0.35938 c -1.7975,0.01242 -5.0319,1.1371 -5.7461,4.4512 -0.2725,1.275 1.4527,1.7393 1.6777,1.0918 0.5475,-1.7225 1.4465,-3.225 4.5215,-3.5625 0.565,-0.05375 0.71805,-1.8256 0.2168,-1.9219 -0.18656,-0.04047 -0.41314,-0.06037 -0.66992,-0.05859 z m 48.218998,0.62891 c 0.19875,0.58125 0.46406,1.0895 0.72656,1.5957 -1.455,1.3275 -4.932,5.1441 -6.2832,8.5879 -0.54125,1.3688 -0.75258,2.0913 -0.95508,2.8613 0.42125,-2.9425 -0.37812,-7.2466 -1.2344,-10.963 2.5675,0.05375 5.1673,-0.61953 7.7461,-2.082 z m -12.871,1.082 c 0.775,0.37125 1.7157,0.69258 2.627,0.92383 0.7175,1.52 1.9361,7.5912 1.4023,11.25 -1.66,-0.155 -3.5984,-0.115 -4.7559,0 -0.36125,-0.6525 -0.41281,-3.627 -0.28906,-5.582 0.2275,-3.6488 0.91562,-6.1268 1.0156,-6.5918 z m 14.963,2.6523 c 0.72125,0.82 1.7135,1.5312 2.6348,2.0312 -0.27,0.46375 -0.73359,1.274 -1.2148,2.3027 -1.1088,2.385 -0.53234,5.4708 -3.3711,8.2695 -0.39125,-0.322499 -3.2515,-1.687499 -4.334,-2.124999 0.45,-3.790001 3.9764,-8.523501 6.2852,-10.479001 z m -31.128998,0.217 c 0.77125,0.27 2.0049,0.23219 2.7324,0.24219 0.2175,0.30875 2.1486,2.2166 4.8398,5.7891 1.3988,1.8288 2.6565,3.9791 2.9277,4.431601 -1.175,0.4225 -3.2432,1.468 -4.4395,2.279299 -2.24,-2.316199 -3.9764,-9.3077 -5.0977,-11.16 -0.42875,-0.71 -0.73039,-1.1995 -0.96289,-1.582 z m -2.3613,0.75977 c 3.3038,5.275 3.3894,10.053001 6.5781,13.346 -4.0262,-3.895 -7.5374,-3.820199 -13.295,-6.9277 -0.99375,-0.535 -2.479,-1.5004 -2.8965,-1.7129 -0.006,-0.005 -0.0179,-0.0099 -0.0254,-0.01367 0.0662,-0.485 0.10547,-0.98875 0.10547,-1.5312 0,-0.155 -0.0302,-0.3368 -0.0352,-0.49805 3.1775,0.50125 6.8784,-0.24211 9.5684,-2.6621 z m 70.371001,0.10156 c -0.38667,-0.0014 -0.77438,0.04141 -1.1524,0.12891 -0.64125,0.14 -0.70687,1.9673 0.14063,1.9473 2.24,-0.0225 3.9221,0.2518 3.6621,3.6543 -0.06,0.71 1.6473,0.66695 1.8223,-0.0293 0.90125,-3.5558 -1.766,-5.6916 -4.4726,-5.7012 z m -96.858001,1.435 c -2.8676,0.14005 -6.6057006,1.7852 -6.6855006,5.3125 -0.02,0.84875 1.0648,1.5969 1.4961,1.1719 0.2949996,-0.31 -0.0903,-1.2491 1.4922006,-2.9629 1.4788,-1.6075 3.1651,-1.6523 5.2676,-1.6523 0.9775,0 0.6918,-1.7079 -0.4082,-1.8379 -0.36094,-0.04031 -0.75246,-0.05126 -1.1621,-0.03125 z m 64.714998,0.47266 c 2.1125,0.70125 4.432,0.88867 6.707,0.63867 0.23,0.74375 0.58813,1.5391 1.0469,2.3379 -0.01,0.0025 -0.0321,0.01703 -0.0371,0.01953 -1.1262,0.535 -4.5425,2.8704 -9.5312,5.650401 -1.2912,0.71375 -2.0855,1.402999 -2.543,1.872999 0.55,-0.73875 1.2188,-1.714899 1.6426,-2.794899 0.8775,-2.248801 0.645,-4.053001 2.4062,-7.136701 0.0913,-0.16 0.19734,-0.36664 0.30859,-0.58789 z m 9.0332,4.5117 c 0.70375,0.83875 1.5375,1.6406 2.5,2.3281 -2.3375,1.300001 -3.6293,2.051401 -4.8418,3.4727 -3.7812,4.45 -5.6871,6.0027 -6.3496,5.9727 -0.725,-1.445 -2.3291,-3.1723 -3.4141,-4.1348 1.3612,-1.51 7.2691,-4.267799 9.9941,-6.3203 0.4025,-0.3025 1.5988,-1.0371 2.1113,-1.3184 z m -57.479998,0.15625 c 0.30625,0.18625 0.5557,0.3432 0.68945,0.43945 0.0975,0.0525 1.9943,1.3294 3.123,1.8594 4.985,2.341201 8.1117,2.9287 11.512,5.6699 -1.2425,1.3475 -2.502,2.9189 -3.2832,4.2852 -7.13,-1.9812 -12.702,-8.339999 -13.475,-9.343799 0.54625,-0.710001 1.1411,-1.975201 1.4336,-2.910201 z m 30.560998,3.787101 c 11.01,0 19.631,8.625199 19.631,19.628999 0,0.7375 -0.0521,1.8448 -0.19336,2.9023 -1.1862,0.34 -2.3634,0.7475 -3.4922,1.3125 -5.6838,-3.3112 -13.443,-3.1174 -18.828,-0.04492 -3.326198,-2.6375 -10.812998,-2.8471 -16.460998,-1.5371 -0.17,-1.0625 -0.28711,-2.1141 -0.28711,-2.6328 0,-10.841 8.7884,-19.628999 19.630998,-19.628999 z m 53.799003,8.882999 c 0.81125,-0.005 2.0798,0.1643 2.416,0.2168 1.6688,0.25625 0.34281,0.42 -0.49219,0.59375 -2.5,0.50625 -5.5887,1.2208 -9.2637,2.6445 -4.9212,1.9162 -14.647003,2.4471 -18.600003,2.3809 -3.7925,-0.0625 -5.0716,1.6152 -6.4004,1.3789 -0.0788,-2.0475 -1.2832,-5.0547 -1.2832,-5.0547 1.0988,-0.58875 4.6973,-1.8088 7.8223,-1.6875 4.1825,0.15875 11.811003,0.47883 15.754003,-0.13867 1.9275,-0.295 8.9731,-0.32898 10.047,-0.33398 z m -60.131001,0.75391 c -0.54234,-0.0265 -1.0797,-0.02687 -1.5781,0.0078 l -0.0371,0.0098 c -1.1838,0.1475 -2.5238,0.85914 -3.9375,2.0879 -1.3325,1.1538 -0.47328,1.4771 0.29297,1.0059 1.5262,-0.92625 2.5543,-0.59297 2.748,-0.29297 l -0.0215,0.25 c -0.0625,1.2525 0.90406,2.3352 2.1641,2.3965 1.265,0.0625 2.3372,-0.90547 2.3984,-2.168 l -0.006,-0.17969 c 0.752498,-0.1725 1.651198,0.20562 2.062498,0.29688 0.115,0.03 0.63727,-2.4376 0.13477,-2.6426 -0.90844,-0.36938 -2.593698,-0.69197 -4.220698,-0.77148 z m 12.185998,0.21875 c -1.5016,-0.0014 -2.857,0.24203 -3.5957,0.54297 -0.7225,0.29375 -0.16875,2.6192 -0.0625,2.668 0.17875,0.07125 1.4886,-0.3818 2.3086,-0.12305 v 0.09766 c 0.10625,1.2538 1.2159,2.1913 2.4746,2.0801 1.2562,-0.1125 2.1837,-1.2191 2.0762,-2.4766 l -0.0195,-0.17578 c 0.52,-0.375 1.8798,-2.34e-4 2.916,0.85352 0.55125,0.45125 0.685,-0.12219 0.46875,-0.55469 -1.1523,-2.2273 -4.0638,-2.9098 -6.5664,-2.9121 z m -51.710998,0.002 c 1.234,-0.01597 2.6406,0.04398 4.2812,0.2793 2.555,0.3625 7.0083,0.79688 13.77,0.26562 3.305,-0.265 5.8416,0.82328 7.1191,2.082 -0.3425,1 -0.75461,3.3744 -0.84961,4.1719 -1.7437,0.0325 -4.9728,-1.007 -6.7578,-1.6445 -0.6975,-0.24125 -4.7593,-1.7188 -7.1855,-1.5488 -4.965,0.36125 -11.278,-1.2025 -14.408,-2.4375 -0.78,-0.30375 -7.6173006,-0.90234 -0.96484,-0.90234 1.3656,0 2.9394,-0.23901 4.9961,-0.26562 z m 48.063998,7.291 c -0.34375,-0.095 0.0179,0.67781 -0.53711,0.82031 -0.6275,0.15625 -3.9458,0.53375 -4.8633,0 -0.56,-0.32125 -0.1457,1.2288 0.1543,1.8301 0.7575,1.5163 4.882,1.1455 5.2832,-0.01953 0.37,-1.1025 0.37164,-2.5171 -0.0371,-2.6309 z m -34.789998,6.017 c 0.6201,-0.0082 1.25,0.01172 1.8828,0.06641 8.6188,0.7325 8.6438,6.0873 10.768,8.7598 0.7725,0.9725 -6.9929,3.1992 -14.994,0.94922 -2.6412,-1.1712 -4.7316,-7.2538 -5.5078,-8.0312 -0.27,-0.27 3.511,-1.687 7.851,-1.744 z m -16.641,0.01172 c 6.9925,0.1575 8.9598,8.107 10.604,9.5957 0,0.79 -3.7702,2.1991 -6.459,0.27539 -3.0163,-2.155 -5.0562,-6.1423 -7.1563006,-5.4473 -0.8775,0.285 -0.97578,1.8516 0.23047,1.8828 0.8312506,0.01875 2.3131006,2.207 3.1719006,3.1758 -0.2225,1.1625 -3.2188006,2.3978 -6.3613006,0.50781 -1.375,-0.825 -3.6718,-3.7732 -1.7168,-7.1895 1.0613,-1.8562 4.0712,-2.877 7.6875006,-2.8008 z m 94.572001,0.13867 c 0.62018,-0.0083 1.2518,0.01219 1.8848,0.06641 8.6212,0.73 10.671,6.4048 9.8125,8.2461 -0.75375,1.6175 -6.0327,3.7179 -14.035,1.4629 -2.6412,-1.1762 -4.7359,-7.2577 -5.505903,-8.0352 -0.27562,-0.27016 3.502503,-1.6823 7.843703,-1.7402 z m -56.908001,0.10156 c 1.8931,0.07933 3.6853,0.44406 5.2383,1.1758 3.972498,1.8675 4.662998,6.1751 6.247998,8.2676 0.3875,1.4062 -4.221198,2.2598 -6.638698,0.62109 -0.80625,-0.54375 -3.2571,-3.6165 -4.1309,-4.6777 -0.87375,-1.055 -2.4869,-2.0184 -3.1719,-1.0547 -0.40875,0.57875 0.0154,1.2446 0.74414,1.6621 0.7825,0.44875 2.8557,3.1324 3.127,3.6387 -0.16,0.83125 -4.0245,2.2207 -6.2832,-0.5293 -1.1688,-1.43 -3.433,-5.6674 -4.793,-7.4824 3.0703,-1.0906 6.5049,-1.7533 9.6602,-1.6211 z m 37.270998,0.08594 c 2.4555,-0.10203 4.8153,0.25742 6.8828,1.2324 3.9825,1.87 4.904,6.1462 6.240203,8.2637 0.39125,1.4088 -4.440303,1.8466 -6.632803,0.63281 -0.84375,-0.48 -3.2513,-3.6161 -4.125,-4.6836 -0.87375,-1.055 -2.2406,-1.7366 -2.9219,-0.77539 -0.40875,0.58 0.0823,1.272 0.83984,1.6895 0.92875,0.505 2.5052,2.8277 2.7852,3.334 -0.15875,0.82875 -3.5703,1.9159 -6.0703,-0.61914 -1.2788,-1.2862 -3.5777,-5.7757 -4.459,-7.5332 2.4544,-0.87562 5.0055,-1.439 7.4609,-1.541 z m -19.252,0.102 c 0.62026,-0.0083 1.252,0.01024 1.8848,0.06445 8.6262,0.73 8.6488,6.0877 10.768,8.7539 0.7775,0.9775 -6.9886,3.2094 -14.996,0.95312 -2.635,-1.175 -4.731,-7.2557 -5.5098,-8.0332 -0.27344,-0.27016 3.5117,-1.6803 7.8535,-1.7383 z m -66.8889986,21.023 v 63.363008 c 0,20.941 5.2331,35.445 16.4220006,45.635 11.112,10.115 27.754,15.251 44.024998,19.094 16.712,-3.9462 32.795,-8.8738 44.018003,-19.094 11.192,-10.19 16.395,-24.694 16.395,-45.635 V 84.963622 Z m 2.8926,2.8848 H 51.539619 V 130.66642 H 4.2896184 Z m 49.7110006,0 h 15.667998 v 45.446998 h 49.686003 v 13.93601 H 69.668617 v 60.732 l -7.8242,1.9941 -7.843798,-2.0254 v -60.701 H 4.2896184 V 133.29512 H 54.000619 V 87.848122 Z m 18.136998,0 H 119.35462 V 130.66642 H 72.137617 Z m -47.712998,6.1484 c -2.1362,-0.005 -6.9256,1.613 -9.8594,0.9043 v 4.1602 h -2.8867 v 22.862998 h 13.533 v 1.6992 h 5.6094 v -1.6992 h 13.529 V 99.061322 h -2.8867 v -4.1602 c -2.935,0.69375 -7.7199,-0.9043 -9.8574,-0.9043 -2.36,0 -3.5859,1.0352 -3.5859,1.0352 0,0 -1.2107,-1.0289 -3.5957,-1.0352 z m 67.962998,0 c -2.1375,-0.005 -6.9244,1.613 -9.8594,0.9043 v 4.1602 h -2.8789 v 22.862998 h 13.527 v 1.6992 h 5.6094 v -1.6992 H 112.31472 V 99.061322 h -2.8828 v -4.1602 c -2.9388,0.69375 -7.7206,-0.9043 -9.859403,-0.9043 -2.3612,0 -3.5918,1.0352 -3.5918,1.0352 0,0 -1.2075,-1.0289 -3.5938,-1.0352 z m -67.897998,2.5977 c 1.5825,-0.0487 2.0273,0.85352 2.0273,0.85352 v 19.862998 c 0,0 -1.7001,-1.1924 -5.5176,-0.10742 -2.9488,0.84 -4.0156,0.0293 -4.0156,0.0293 V 97.544922 c 1.6888,0.29375 4.5659,-0.86492 7.5059,-0.95117 z m 7.0469,0 c 2.9438,0.0863 5.8191,1.2449 7.5078,0.95117 v 19.687998 c 0,0 -1.0649,0.8107 -4.0137,-0.0293 -3.8175,-1.085 -5.5234,0.10742 -5.5234,0.10742 V 97.448812 c 0,0 0.4493,-0.90227 2.0293,-0.85352 z m 60.554998,0 c 1.5838,-0.0487 2.0234,0.85352 2.0234,0.85352 v 19.862998 c 0,0 -1.7062,-1.1924 -5.5137,-0.10742 -2.9525,0.84 -4.0215,0.0293 -4.0215,0.0293 V 97.544922 c 1.6912,0.29375 4.5742,-0.86492 7.5117,-0.95117 z m 7.0469,0 c 2.938703,0.0863 5.817103,1.2449 7.505903,0.95117 v 19.687998 c 0,0 -1.0676,0.8107 -4.0176,-0.0293 -3.822503,-1.085 -5.519503,0.10742 -5.519503,0.10742 V 97.448812 c 0,0 0.45125,-0.90227 2.0312,-0.85352 z M 4.2904184,149.86253 H 51.536419 v 57.318 c -12.156,-3.56 -23.965,-8.3479 -31.49,-15.4 -2.6812,-2.5125 -4.9592,-5.2174 -6.8867,-8.1387 h 12.055 v 1.7012 h 5.6035 v -1.7012 h 13.533 v -22.867 h -2.8867 v -4.1621 c -2.9338,0.7 -7.718,-0.90039 -9.8555,-0.90039 -2.3612,0 -3.5859,1.0371 -3.5859,1.0371 0,0 -1.212,-1.0334 -3.5957,-1.0371 -2.1375,0 -6.9255,1.6104 -9.8555,0.90039 v 4.1621 h -2.8926 v 20.447 c -4.5987006,-8.06 -6.8210006,-17.714 -7.2910006,-29.545 l -0.0977,-1.8144 z m 67.8479986,0 h 47.217003 l 0.082,1.9297 c -0.7025,12.938 -2.7677,22.144 -7.1152,29.664 v -20.682 h -2.8906 v -4.1621 c -2.9362,0.7 -7.7188,-0.90039 -9.861303,-0.90039 -2.3575,0 -3.5859,1.0371 -3.5859,1.0371 0,0 -1.2068,-1.0334 -3.5918,-1.0371 -2.1388,0 -6.9267,1.6104 -9.8555,0.90039 v 4.1621 h -2.8926 v 22.867 h 13.537 v 1.7012 h 5.6055 v -1.7012 h 12.176003 c -1.965,2.9438 -4.3112,5.6441 -7.1387,8.2266 -7.985003,7.3038 -19.781003,11.909 -31.686003,15.354 v -57.359 z m -47.642998,8.4492 c 1.5775,-0.0525 2.0273,0.85352 2.0273,0.85352 v 19.861 c 0,0 -1.7059,-1.1902 -5.5234,-0.0977 -2.9488,0.84125 -4.0098,0.0293 -4.0098,0.0293 v -19.689 c 1.6838,0.295 4.5621,-0.86578 7.5059,-0.95703 z m 7.041,0 c 2.9438,0.0913 5.8198,1.252 7.5098,0.95703 v 19.689 c 0,0 -1.0669,0.81196 -4.0156,-0.0293 -3.8175,-1.0925 -5.5215,0.0977 -5.5215,0.0977 v -19.861 c 0,0 0.44859,-0.90602 2.0273,-0.85352 z m 60.919998,0 c 1.5812,-0.0525 2.0312,0.85352 2.0312,0.85352 v 19.861 c 0,0 -1.7034,-1.1902 -5.5234,-0.0977 -2.9475,0.84125 -4.0117,0.0293 -4.0117,0.0293 v -19.689 c 1.6862,0.295 4.5627,-0.86578 7.5039,-0.95703 z m 7.0508,0 c 2.938703,0.0913 5.809303,1.252 7.498003,0.95703 v 19.689 c 0,0 -1.0585,0.81196 -4.0098,-0.0293 -3.816203,-1.0925 -5.517603,0.0977 -5.517603,0.0977 v -19.861 c 0,0 0.44055,-0.90602 2.0293,-0.85352 z"
     id="path10"
     inkscape:connector-curvature="0"
     style="fill:#ffffff;fill-opacity:1;stroke:none" /></svg>